<svg width="17" height="14" viewBox="0 0 17 14" fill="none" xmlns="http://www.w3.org/2000/svg">
<path d="M5.47495 0.673243C5.2193 0.164672 4.54531 -0.106019 3.9012 0.0388961L0.979449 0.695117C0.40174 0.826361 0 1.25837 0 1.75054C0 8.51509 6.66025 14 14.8743 14C15.472 14 15.9966 13.6692 16.1559 13.1934L16.9528 10.7873C17.1287 10.2568 16.8 9.70175 16.1825 9.49121L12.9951 8.39751C12.4539 8.21158 11.8264 8.34009 11.4579 8.71469L10.1165 10.0627C7.77915 9.15217 5.88665 7.59364 4.78104 5.66873L6.41788 4.56682C6.87274 4.26059 7.02879 3.74655 6.80302 3.30086L5.47495 0.675977V0.673243Z" fill="#F3E2B3"/>
</svg>
