<svg width="255" height="45" viewBox="0 0 255 45" fill="none" xmlns="http://www.w3.org/2000/svg">
<path opacity="0.25" d="M92.5 1C104.374 1 114 10.6259 114 22.5C114 34.3741 104.374 44 92.5 44C80.6259 44 71 34.3741 71 22.5C71 10.6259 80.6259 1 92.5 1Z" stroke="#FFF7EC" stroke-width="2"/>
<path d="M90.699 29.393L90.6786 23.0961H88V20.3974H90.6786V18.5983C90.6786 16.1702 92.171 15 94.3209 15C95.3507 15 96.2358 15.0772 96.4937 15.1118V17.6493L95.0026 17.65C93.8334 17.65 93.607 18.2097 93.607 19.0312V20.3974H96.9286L96.0357 23.0961H93.607V29.393H90.699Z" fill="#FFF7EC"/>
<path opacity="0.25" d="M232.5 1C244.374 1 254 10.6259 254 22.5C254 34.3741 244.374 44 232.5 44C220.626 44 211 34.3741 211 22.5C211 10.6259 220.626 1 232.5 1Z" stroke="#FFF7EC" stroke-width="2"/>
<path fill-rule="evenodd" clip-rule="evenodd" d="M239.266 17.3431C239.951 17.5244 240.491 18.0559 240.675 18.7295C241.016 19.9588 241 22.522 241 22.522C241 22.522 240.997 25.071 240.667 26.2996C240.48 26.9724 239.938 27.5031 239.254 27.6836C238.002 28.0055 232.994 28 232.994 28C232.994 28 227.999 27.9945 226.734 27.6569C226.048 27.4756 225.508 26.9441 225.325 26.2713C224.997 25.0545 225 22.4921 225 22.4921C225 22.4921 225.003 19.9423 225.333 18.713C225.519 18.0402 226.074 17.4969 226.745 17.3172C227.998 16.9945 233.006 17 233.006 17C233.006 17 238.014 17.0055 239.266 17.3431ZM231.407 20.1441L231.403 24.8543L235.57 22.5031L231.407 20.1441Z" fill="#FFF7EC"/>
<path opacity="0.25" d="M162.5 1C174.374 1 184 10.6259 184 22.5C184 34.3741 174.374 44 162.5 44C150.626 44 141 34.3741 141 22.5C141 10.6259 150.626 1 162.5 1Z" stroke="#FFF7EC" stroke-width="2"/>
<path d="M165.868 19.9423C166.299 19.9423 166.648 19.5931 166.648 19.1623C166.648 18.7315 166.299 18.3823 165.868 18.3823C165.437 18.3823 165.088 18.7315 165.088 19.1623C165.088 19.5931 165.437 19.9423 165.868 19.9423Z" fill="#FFF7EC"/>
<path d="M162.5 19.25C164.292 19.25 165.75 20.7076 165.75 22.5C165.75 24.2924 164.292 25.75 162.5 25.75C160.708 25.75 159.25 24.2924 159.25 22.5C159.25 20.7076 160.708 19.25 162.5 19.25ZM162.5 20.875C161.604 20.875 160.875 21.6038 160.875 22.5C160.875 23.3962 161.604 24.125 162.5 24.125C163.396 24.125 164.125 23.3962 164.125 22.5C164.125 21.6038 163.396 20.875 162.5 20.875Z" fill="#FFF7EC"/>
<path d="M165.75 16C167.42 16 169 17.5795 169 19.25V25.75C169 27.4205 167.42 29 165.75 29H159.25C157.579 29 156 27.4205 156 25.75V19.25C156 17.5795 157.579 16 159.25 16H165.75ZM159.25 17.625C158.49 17.625 157.625 18.4903 157.625 19.25V25.75C157.625 26.5243 158.476 27.375 159.25 27.375H165.75C166.51 27.375 167.375 26.5097 167.375 25.75V19.25C167.375 18.4903 166.51 17.625 165.75 17.625H159.25Z" fill="#FFF7EC"/>
<path opacity="0.25" d="M22.5 1.125C34.3051 1.125 43.875 10.6949 43.875 22.5C43.875 34.3051 34.3051 43.875 22.5 43.875C10.6949 43.875 1.125 34.3051 1.125 22.5C1.125 10.6949 10.6949 1.125 22.5 1.125Z" stroke="#FFF7EC" stroke-width="2.25"/>
<path d="M17.6875 19.375C18.6195 19.375 19.375 18.6195 19.375 17.6875C19.375 16.7555 18.6195 16 17.6875 16C16.7555 16 16 16.7555 16 17.6875C16 18.6195 16.7555 19.375 17.6875 19.375Z" fill="#FFF7EC"/>
<path d="M19.0938 20.5H16.2812C16.126 20.5 16 20.626 16 20.7812V29.2188C16 29.374 16.126 29.5 16.2812 29.5H19.0938C19.249 29.5 19.375 29.374 19.375 29.2188V20.7812C19.375 20.626 19.249 20.5 19.0938 20.5Z" fill="#FFF7EC"/>
<path d="M27.4733 20.1125C26.2712 19.7007 24.7677 20.0624 23.866 20.711C23.8351 20.59 23.7248 20.5 23.5938 20.5H20.7812C20.626 20.5 20.5 20.626 20.5 20.7813V29.2188C20.5 29.374 20.626 29.5 20.7812 29.5H23.5938C23.749 29.5 23.875 29.374 23.875 29.2188V23.155C24.3295 22.7635 24.9151 22.6387 25.3943 22.8423C25.8589 23.0386 26.125 23.5178 26.125 24.1563V29.2188C26.125 29.374 26.251 29.5 26.4062 29.5H29.2188C29.374 29.5 29.5 29.374 29.5 29.2188V23.5898C29.4679 21.2785 28.3806 20.423 27.4733 20.1125Z" fill="#FFF7EC"/>
</svg>
