<svg width="43" height="50" viewBox="0 0 43 50" fill="none" xmlns="http://www.w3.org/2000/svg">
<path d="M22.7647 50L22.1324 42.5H21.5C15.5137 42.5 10.4338 40.4375 6.26029 36.3125C2.08676 32.1875 0 27.1667 0 21.25C0 15.3333 2.08676 10.3125 6.26029 6.1875C10.4338 2.0625 15.5137 0 21.5 0C24.4931 0 27.2865 0.551667 29.8799 1.655C32.4734 2.75833 34.7499 4.27917 36.7094 6.2175C38.6688 8.15583 40.2067 10.4058 41.323 12.9675C42.4393 15.5292 42.9983 18.29 43 21.25C43 24.375 42.484 27.375 41.452 30.25C40.42 33.125 39.0069 35.7917 37.2127 38.25C35.4185 40.7083 33.2896 42.9375 30.8259 44.9375C28.3623 46.9375 25.6752 48.625 22.7647 50ZM27.8235 40.875C30.8167 38.375 33.2516 35.4483 35.1285 32.095C37.0053 28.7417 37.9429 25.1267 37.9412 21.25C37.9412 16.7083 36.3493 12.865 33.1656 9.72C29.982 6.575 26.0934 5.00167 21.5 5C16.9066 4.99833 13.018 6.57167 9.83435 9.72C6.65067 12.8683 5.05882 16.7117 5.05882 21.25C5.05882 25.7883 6.65067 29.6325 9.83435 32.7825C13.018 35.9325 16.9066 37.505 21.5 37.5H27.8235V40.875ZM21.4368 34.9375C22.1534 34.9375 22.7647 34.6875 23.2706 34.1875C23.7765 33.6875 24.0294 33.0833 24.0294 32.375C24.0294 31.6667 23.7765 31.0625 23.2706 30.5625C22.7647 30.0625 22.1534 29.8125 21.4368 29.8125C20.7201 29.8125 20.1088 30.0625 19.6029 30.5625C19.0971 31.0625 18.8441 31.6667 18.8441 32.375C18.8441 33.0833 19.0971 33.6875 19.6029 34.1875C20.1088 34.6875 20.7201 34.9375 21.4368 34.9375ZM19.6029 27H23.3971C23.3971 25.75 23.5235 24.875 23.7765 24.375C24.0294 23.875 24.8304 22.9583 26.1794 21.625C26.9382 20.875 27.5706 20.0625 28.0765 19.1875C28.5824 18.3125 28.8353 17.375 28.8353 16.375C28.8353 14.25 28.1085 12.6567 26.6549 11.595C25.2014 10.5333 23.4831 10.0017 21.5 10C19.6451 10 18.0853 10.5108 16.8206 11.5325C15.5559 12.5542 14.6706 13.7933 14.1647 15.25L17.7059 16.625C17.9167 15.9167 18.3172 15.2192 18.9074 14.5325C19.4976 13.8458 20.3618 13.5017 21.5 13.5C22.6382 13.4983 23.4923 13.8108 24.0623 14.4375C24.6323 15.0642 24.9164 15.7517 24.9147 16.5C24.9147 17.2083 24.7039 17.8442 24.2824 18.4075C23.8608 18.9708 23.3549 19.5433 22.7647 20.125C21.2892 21.375 20.3938 22.365 20.0785 23.095C19.7631 23.825 19.6046 25.1267 19.6029 27Z" fill="#FFF7EC"/>
</svg>
